# xmcd
#
# Track frame offsets:
#	150
#	8175
#	22070
#	40412
#	52505
#	68397
#	93282
#	107915
#	128330
#	147882
#	164550
#	179650
#	195670
#	212370
#
# Disc length: 3022 seconds
#
# Revision: 1
# Processed by: cddbd v1.5.2PL0 Copyright (c) Steve Scherf et al.
# Submitted via: audiograbber 1.83.01
#
DISCID=b40bcc0e
DTITLE=Renato Teixeira - Mega Hits
DYEAR=1900
DGENRE=Regional
TTITLE0=Vira
TTITLE1=Cavalo Bravo
TTITLE2=Romaria
TTITLE3=O Maior Misterio
TTITLE4=Amora
TTITLE5=Marinheiro Bonito
TTITLE6=Frete
TTITLE7=Sentimental eu Fico
TTITLE8=Amizade Sincera
TTITLE9=Vida Malvada
TTITLE10=Tutu com Torresmo
TTITLE11=Sina de Violeiro
TTITLE12=Iluminaçao
TTITLE13=Canta Moçada
EXTD=Coletanea
EXTT0=
EXTT1=
EXTT2=
EXTT3=
EXTT4=
EXTT5=
EXTT6=
EXTT7=
EXTT8=
EXTT9=
EXTT10=
EXTT11=
EXTT12=
EXTT13=
PLAYORDER=
